<svg id="Layer_1" data-name="Layer 1" xmlns="http://www.w3.org/2000/svg" viewBox="0 0 277.49 303.74"><path d="M393.19,314l45.49,54.33L375.3,312.05l-26.63-48.61c-2.31-4.22-1.68-4.65,1.41-1L372,288.66l16,1.48a5.86,5.86,0,0,1,5.21,5.72Z" transform="translate(-161.19 -258.74)" fill="#e74128"/><polygon points="277.36 116.26 270.97 265.69 50 300.58 50 142.42 76.76 68.57 214.52 58.43 277.36 116.26" fill="#e74128"/><path d="M344.53,266.06l25,45.81-127.89,9,18.5-51.21a14,14,0,0,1,11.68-8.55l59.76-2.33A15.4,15.4,0,0,1,344.53,266.06Zm1.85,31-4.62-9.16a14.54,14.54,0,0,0-12.64-7.34l-50.32,2.59a13.76,13.76,0,0,0-11.47,8.72l-3.35,10Z" transform="translate(-161.19 -258.74)" fill="#e74128"/><path d="M251.27,268.57c3.45-3.34,4.88-2.41,3.2,2.1L205.87,400.6l2.32,161.88-47-65V355.93l47-45.59v24.09L243,290.64l-16,1.48Z" transform="translate(-161.19 -258.74)" fill="#e74128"/><path d="M234.74,295.48l-23.55,29.65V302.89a5.86,5.86,0,0,1,5.21-5.71Z" transform="translate(-161.19 -258.74)" fill="#e74128"/><path d="M387.25,362.05c-8.68-4.8-21.33-5-33.71-.57a58.36,58.36,0,0,0-23.07,15.19c-4.28,4.57-5.68,7-6.42,11.15-1,5.91.56,11.66,6,21.71,2.57,4.7,3.4,6.57,3.41,7.75,0,.83-.09,1-3.12,4.47a295.69,295.69,0,0,1-27.58,27c-4.15,3.56-8.21,6.88-16.88,13.76-12.18,9.67-14.15,11.31-18.67,15.74a43.14,43.14,0,0,0-7.6,9.84A32.48,32.48,0,0,0,257,495c-.77,4.57,1.67,9.4,6.78,13.32a20.27,20.27,0,0,0,9.51,4.3c3.41.56,5.82-.06,9.46-2.46,3.48-2.3,4.38-3.12,8.72-8.13,4.9-5.64,5.62-6.67,15-21.85,10.83-17.48,14.8-23.41,22.57-33.81,3.62-4.84,14.06-17.72,15.32-18.88,1.55-1.44,3.6-1.28,10.14.75,6.77,2.1,10.73,3.06,14,3.35,6.42.57,11.19-.55,15.84-3.64,3.09-2.07,9-9.53,11.86-14.88,8.17-15.45,7.85-32.27-.78-43.71A25.59,25.59,0,0,0,387.25,362.05Z" transform="translate(-161.19 -258.74)" fill="#fcfbfb"/><path d="M234.74,378.31c.09,2.88,5.69,12.47,13.81,23.64A157.2,157.2,0,0,0,261,417.39c4.65,5.21,5.69,6.24,7.05,7.15a13.58,13.58,0,0,0,6.17,2.31c2.38.32,3.71.3,9.33-.14,5.08-.39,7.24-.41,9.13,0,3.21.59,5.1,2,7.48,5.46.75,1.13,4.18,6.52,7.61,12,12.66,20.18,16.33,25.76,22.92,34.91a153.85,153.85,0,0,0,14.1,17.55c7.33,8.16,9.08,9.79,13.87,13,4.27,2.86,6.79,3.56,10.42,2.92a19.6,19.6,0,0,0,3.38-.91c7.85-3.17,13.64-11.13,12.37-17a37.56,37.56,0,0,0-3.24-7.16,70,70,0,0,0-9.35-11c-3.55-3.26-5.93-5.23-15.35-12.6-19.26-15.07-27.08-22-39.68-34.86-6.33-6.48-9.31-10-9.66-11.35-.54-2.14-.29-4.08,1.23-9,1.62-5.27,2.09-9.22,1.5-12.79s-2.72-6.53-10-14.31a147.67,147.67,0,0,0-12.37-12.08c-10.2-9.09-21.13-17.26-22-16.37-.61.65,1.47,3.7,9.54,13.85,9.77,12.28,13.1,17,14.43,20.34.7,1.75.69,2.46,0,2.92-1.72,1.14-6.28-2.43-16.82-13.2-13.4-13.7-16-16.11-17.3-15.87s.71,3.37,9.32,14.05c10.07,12.49,13.32,17.08,14.5,20.58.94,2.65-.54,3.83-3.15,2.54-3.07-1.52-6.79-5-17.35-16.29-10.07-10.72-12.7-13.2-13.72-12.84-1.2.43,1.05,4,9.39,14.89,7.43,9.67,9.77,12.93,11.77,16.16,2.4,3.84,3.07,6,2.18,6.66-1.07.84-3.1-.13-6.93-3.31-2.7-2.24-6.83-6.39-14.95-15-9-9.55-11.32-11.71-12-11.21A1.54,1.54,0,0,0,234.74,378.31Z" transform="translate(-161.19 -258.74)" fill="#fcfcfd"/></svg>